<?xml version="1.0" encoding="UTF-8" standalone="no"?>
<svg
   viewBox="0 0 793.7007874015749 1122.5196850393702"
   width="793.7007874015749"
   height="1122.5196850393702"
   version="1.1"
   id="svg58"
   sodipodi:docname="chassis v3.svg"
   inkscape:version="1.1.1 (3bf5ae0d25, 2021-09-20)"
   xmlns:inkscape="http://www.inkscape.org/namespaces/inkscape"
   xmlns:sodipodi="http://sodipodi.sourceforge.net/DTD/sodipodi-0.dtd"
   xmlns="http://www.w3.org/2000/svg"
   xmlns:svg="http://www.w3.org/2000/svg">
  <sodipodi:namedview
     id="namedview60"
     pagecolor="#ffffff"
     bordercolor="#666666"
     borderopacity="1.0"
     inkscape:pageshadow="2"
     inkscape:pageopacity="0.0"
     inkscape:pagecheckerboard="0"
     showgrid="false"
     inkscape:zoom="0.36168632"
     inkscape:cx="425.78332"
     inkscape:cy="1024.3683"
     inkscape:window-width="1920"
     inkscape:window-height="1001"
     inkscape:window-x="-9"
     inkscape:window-y="-9"
     inkscape:window-maximized="1"
     inkscape:current-layer="g56" />
  <desc
     id="desc2">chassis v3.dxf - scale = 1000.0, origin = (0.0, 0.0), method = manual</desc>
  <defs
     id="defs16">
    <marker
       id="DistanceX"
       orient="auto"
       refX="0.0"
       refY="0.0"
       style="overflow:visible">
      <path
         d="M 3,-3 L -3,3 M 0,-5 L  0,5"
         style="stroke:#000000; stroke-width:0.5"
         id="path4" />
    </marker>
    <pattern
       id="Hatch"
       patternUnits="userSpaceOnUse"
       width="8"
       height="8"
       x="0"
       y="0">
      <path
         d="M8 4 l-4,4"
         stroke="#000000"
         stroke-width="0.25"
         linecap="square"
         id="path7" />
      <path
         d="M6 2 l-4,4"
         stroke="#000000"
         stroke-width="0.25"
         linecap="square"
         id="path9" />
      <path
         d="M4 0 l-4,4"
         stroke="#000000"
         stroke-width="0.25"
         linecap="square"
         id="path11" />
    </pattern>
    <symbol
       id="*MODEL_SPACE" />
    <symbol
       id="*PAPER_SPACE" />
  </defs>
  <g
     inkscape:groupmode="layer"
     inkscape:label="0"
     id="g56">
    <path
       d="m 502.45839,655.43154 a 6.614173,6.614173 0 1 0 -13.22835,0 6.614173,6.614173 0 1 0 13.22835,0 z"
       style="fill:none;stroke:#ff0000;stroke-opacity:1"
       id="path18" />
    <path
       d="M 620.56862,555.27406 V 838.73862 H 741.51351 V 555.27406 Z"
       style="fill:none;stroke:#ff0000;stroke-opacity:1"
       id="path20" />
    <path
       d="m 503.40327,252.91185 a 7.559055,7.559055 0 1 0 -15.11811,0 7.559055,7.559055 0 1 0 15.11811,0 z"
       style="fill:none;stroke:#ff0000;stroke-opacity:1"
       id="path22" />
    <path
       d="m 502.45839,621.41579 a 6.614173,6.614173 0 1 0 -13.22835,0 6.614173,6.614173 0 1 0 13.22835,0 z"
       style="fill:none;stroke:#ff0000;stroke-opacity:1"
       id="path24" />
    <path
       d="m 351.27729,655.43154 a 6.614173,6.614173 0 1 0 -13.22835,0 6.614173,6.614173 0 1 0 13.22835,0 z"
       style="fill:none;stroke:#ff0000;stroke-opacity:1"
       id="path26" />
    <path
       d="M 219.9387,555.27406 H 98.99382 V 838.73862 H 219.9387 Z"
       style="fill:none;stroke:#ff0000;stroke-opacity:1"
       id="path28" />
    <path
       d="m 352.22217,252.91185 a 7.559055,7.559055 0 1 0 -15.11811,0 7.559055,7.559055 0 1 0 15.11811,0 z"
       style="fill:none;stroke:#ff0000;stroke-opacity:1"
       id="path30" />
    <path
       d="m 351.27729,621.41579 a 6.614173,6.614173 0 1 0 -13.22835,0 6.614173,6.614173 0 1 0 13.22835,0 z"
       style="fill:none;stroke:#ff0000;stroke-opacity:1"
       id="path32" />
    <path
       d="m 458.04894,838.73862 h -75.59055 a 18.897638,18.897638 0 0 0 0,37.79528 h 75.59055 a 18.897638,18.897638 0 0 0 0,-37.79528 z"
       style="fill:none;stroke:#ff0000;stroke-opacity:1"
       id="path34" />
    <path
       d="m 522.3009,158.42365 a 7.559055,7.559055 0 1 0 -15.11811,0 7.559055,7.559055 0 1 0 15.11811,0 z"
       style="fill:none;stroke:#ff0000;stroke-opacity:1"
       id="path36" />
    <path
       d="m 550.64736,800.94335 a 7.559055,7.559055 0 1 0 -15.11811,0 7.559055,7.559055 0 1 0 15.11811,0 z"
       style="fill:none;stroke:#ff0000;stroke-opacity:1"
       id="path38" />
    <path
       d="m 304.97807,158.42366 a 7.559055,7.559055 0 1 0 -15.11811,0 7.559055,7.559055 0 1 0 15.11811,0 z"
       style="fill:none;stroke:#ff0000;stroke-opacity:1"
       id="path40" />
    <path
       d="m 333.32453,158.42365 a 7.559055,7.559055 0 1 0 -15.11811,0 7.559055,7.559055 0 1 0 15.11811,0 z"
       style="fill:none;stroke:#ff0000;stroke-opacity:1"
       id="path42" />
    <path
       d="m 333.32453,800.94335 a 7.559055,7.559055 0 1 0 -15.11811,0 7.559055,7.559055 0 1 0 15.11811,0 z"
       style="fill:none;stroke:#ff0000;stroke-opacity:1"
       id="path44" />
    <path
       d="m 304.97807,800.94335 a 7.559055,7.559055 0 1 0 -15.11811,0 7.559055,7.559055 0 1 0 15.11811,0 z"
       style="fill:none;stroke:#ff0000;stroke-opacity:1"
       id="path46" />
    <path
       d="m 550.64736,158.42366 a 7.559055,7.559055 0 1 0 -15.11811,0 7.559055,7.559055 0 1 0 15.11811,0 z"
       style="fill:none;stroke:#ff0000;stroke-opacity:1"
       id="path48" />
    <path
       d="m 382.45839,536.37642 h 75.59055 a 18.897638,18.897638 0 0 0 0,-37.79528 h -75.59055 a 18.897638,18.897638 0 0 0 0,37.79528 z"
       style="fill:none;stroke:#ff0000;stroke-opacity:1"
       id="path50" />
    <path
       d="m 522.3009,800.94335 a 7.559055,7.559055 0 1 0 -15.11811,0 7.559055,7.559055 0 1 0 15.11811,0 z"
       style="fill:none;stroke:#ff0000;stroke-opacity:1"
       id="path52" />
    <path
       d="M 61.198545,120.62839 H 779.30878 V 952.12445 H 61.198545 Z"
       style="fill:none;stroke:#ff0000;stroke-opacity:1"
       id="path54" />
  </g>
</svg>
