<?xml version="1.0" encoding="UTF-8" standalone="no"?>
<svg
   viewBox="0 0 793.7007874015749 1122.5196850393702"
   width="793.7007874015749"
   height="1122.5196850393702"
   version="1.1"
   id="svg48"
   sodipodi:docname="support elec v6.svg"
   inkscape:version="1.1.1 (3bf5ae0d25, 2021-09-20)"
   xmlns:inkscape="http://www.inkscape.org/namespaces/inkscape"
   xmlns:sodipodi="http://sodipodi.sourceforge.net/DTD/sodipodi-0.dtd"
   xmlns="http://www.w3.org/2000/svg"
   xmlns:svg="http://www.w3.org/2000/svg">
  <sodipodi:namedview
     id="namedview50"
     pagecolor="#ffffff"
     bordercolor="#666666"
     borderopacity="1.0"
     inkscape:pageshadow="2"
     inkscape:pageopacity="0.0"
     inkscape:pagecheckerboard="0"
     showgrid="false"
     inkscape:zoom="0.5115017"
     inkscape:cx="-5.8650832"
     inkscape:cy="458.454"
     inkscape:window-width="1920"
     inkscape:window-height="1001"
     inkscape:window-x="-9"
     inkscape:window-y="-9"
     inkscape:window-maximized="1"
     inkscape:current-layer="g46" />
  <desc
     id="desc2">support elec.dxf - scale = 1000.0, origin = (0.0, 0.0), method = manual</desc>
  <defs
     id="defs16">
    <marker
       id="DistanceX"
       orient="auto"
       refX="0.0"
       refY="0.0"
       style="overflow:visible">
      <path
         d="M 3,-3 L -3,3 M 0,-5 L  0,5"
         style="stroke:#000000; stroke-width:0.5"
         id="path4" />
    </marker>
    <pattern
       id="Hatch"
       patternUnits="userSpaceOnUse"
       width="8"
       height="8"
       x="0"
       y="0">
      <path
         d="M8 4 l-4,4"
         stroke="#000000"
         stroke-width="0.25"
         linecap="square"
         id="path7" />
      <path
         d="M6 2 l-4,4"
         stroke="#000000"
         stroke-width="0.25"
         linecap="square"
         id="path9" />
      <path
         d="M4 0 l-4,4"
         stroke="#000000"
         stroke-width="0.25"
         linecap="square"
         id="path11" />
    </pattern>
    <symbol
       id="*MODEL_SPACE" />
    <symbol
       id="*PAPER_SPACE" />
  </defs>
  <g
     inkscape:groupmode="layer"
     inkscape:label="0"
     id="g46">
    <path
       d="m 495.00782,249.94202 a 7.559055,7.559055 0 1 0 -15.11811,0 7.559055,7.559055 0 1 0 15.11811,0 z"
       style="fill:none;stroke:#ff0000;stroke-opacity:1"
       id="path18" />
    <path
       d="m 495.00782,892.46171 a 7.559055,7.559055 0 1 0 -15.11811,0 7.559055,7.559055 0 1 0 15.11811,0 z"
       style="fill:none;stroke:#ff0000;stroke-opacity:1"
       id="path20" />
    <path
       d="m 355.1653,627.89478 h 75.59055 a 18.89764,18.89764 0 0 0 0,-37.79528 H 355.1653 a 18.89764,18.89764 0 0 0 0,37.79528 z"
       style="fill:none;stroke:#ff0000;stroke-opacity:1"
       id="path22" />
    <path
       d="m 368.39365,325.53257 a 5.6692915,5.6692915 0 1 0 -11.33858,0 5.6692915,5.6692915 0 1 0 11.33858,0 z"
       style="fill:none;stroke:#ff0000;stroke-opacity:1"
       id="path24" />
    <path
       d="m 306.03144,892.46171 a 7.559055,7.559055 0 1 0 -15.11811,0 7.559055,7.559055 0 1 0 15.11811,0 z"
       style="fill:none;stroke:#ff0000;stroke-opacity:1"
       id="path26" />
    <path
       d="m 432.64562,790.41446 a 5.669295,5.669295 0 1 0 -11.33859,0 5.669295,5.669295 0 1 0 11.33859,0 z"
       style="fill:none;stroke:#ff0000;stroke-opacity:1"
       id="path28" />
    <path
       d="m 428.86609,325.53257 a 5.6692915,5.6692915 0 1 0 -11.33858,0 5.6692915,5.6692915 0 1 0 11.33858,0 z"
       style="fill:none;stroke:#ff0000;stroke-opacity:1"
       id="path30" />
    <path
       d="m 451.54325,512.61919 a 5.6692915,5.6692915 0 1 0 -11.33858,0 5.6692915,5.6692915 0 1 0 11.33858,0 z"
       style="fill:none;stroke:#ff0000;stroke-opacity:1"
       id="path32" />
    <path
       d="m 364.61412,790.41446 a 5.669291,5.669291 0 1 0 -11.33858,0 5.669291,5.669291 0 1 0 11.33858,0 z"
       style="fill:none;stroke:#ff0000;stroke-opacity:1"
       id="path34" />
    <path
       d="m 364.61412,741.2806 a 5.669291,5.669291 0 1 0 -11.33858,0 5.669291,5.669291 0 1 0 11.33858,0 z"
       style="fill:none;stroke:#ff0000;stroke-opacity:1"
       id="path36" />
    <path
       d="m 306.03144,249.94202 a 7.559055,7.559055 0 1 0 -15.11811,0 7.559055,7.559055 0 1 0 15.11811,0 z"
       style="fill:none;stroke:#ff0000;stroke-opacity:1"
       id="path38" />
    <path
       d="m 345.71648,512.61919 a 5.6692915,5.6692915 0 1 0 -11.33858,0 5.6692915,5.6692915 0 1 0 11.33858,0 z"
       style="fill:none;stroke:#ff0000;stroke-opacity:1"
       id="path40" />
    <path
       d="m 432.64562,741.2806 a 5.669295,5.669295 0 1 0 -11.33859,0 5.669295,5.669295 0 1 0 11.33859,0 z"
       style="fill:none;stroke:#ff0000;stroke-opacity:1"
       id="path42" />
    <path
       d="M 279.57475,231.04438 H 506.3464 V 911.35934 H 279.57475 Z"
       style="fill:none;stroke:#ff0000;stroke-opacity:1"
       id="path44" />
  </g>
</svg>
